<svg width="15" height="15" viewBox="0 0 15 15" fill="none" xmlns="http://www.w3.org/2000/svg">
<path fill-rule="evenodd" clip-rule="evenodd" d="M1.875 7.05687C1.875 8.73374 2.7625 10.21 4.12437 11.1406C4.12375 11.675 4.125 12.395 4.125 13.1506L6.33188 12.0587C6.70938 12.1312 7.09937 12.1706 7.5 12.1706C10.595 12.1706 13.125 9.89374 13.125 7.05687C13.125 4.21999 10.595 1.94312 7.5 1.94312C4.405 1.94312 1.875 4.21999 1.875 7.05687Z" stroke="#F24200" stroke-linecap="round" stroke-linejoin="round"/>
<path d="M7.43727 7.70498V7.5756C7.43727 7.15185 7.69914 6.92248 7.96164 6.74623C8.21789 6.57373 8.47477 6.34873 8.47477 5.93373C8.47477 5.3606 8.01039 4.89685 7.43789 4.89685C6.86539 4.89685 6.40039 5.35998 6.40039 5.9331" stroke="#F24200" stroke-linecap="round" stroke-linejoin="round"/>
<path d="M7.4359 9.16687C7.38403 9.16687 7.34215 9.20875 7.34278 9.26062C7.34278 9.3125 7.38465 9.35437 7.43653 9.35437C7.4884 9.35437 7.53028 9.3125 7.53028 9.26062C7.53028 9.20875 7.48903 9.16687 7.4359 9.16687" stroke="#F24200" stroke-linecap="round" stroke-linejoin="round"/>
</svg>
