<svg width="16" height="17" viewBox="0 0 16 17" fill="none" xmlns="http://www.w3.org/2000/svg">
<g id="Group">
<g id="Group_2">
<path id="Path" d="M4.72204 15.042C4.23004 15.042 3.76404 14.9333 3.34537 14.7393L1.33337 15.1667L1.75404 13.1507C1.55871 12.7307 1.44937 12.2627 1.44937 11.7693C1.44937 9.964 2.91271 8.5 4.71871 8.5C6.52471 8.5 7.98804 9.964 7.98804 11.7693C7.98804 13.5747 6.52404 15.0387 4.71871 15.0387" stroke="#101010" stroke-linecap="round" stroke-linejoin="round"/>
<path id="Path_2" d="M4.408 8.51259C4.146 7.94259 4 7.31792 4 6.65992C4 3.98192 6.39867 1.83325 9.33333 1.83325C12.268 1.83325 14.6667 3.98192 14.6667 6.65992C14.6667 8.24259 13.8253 9.63592 12.534 10.5146C12.5347 11.0186 12.5333 11.6979 12.5333 12.4113L10.4407 11.3806C10.0827 11.4493 9.71267 11.4866 9.33333 11.4866C8.85933 11.4866 8.40133 11.4253 7.96267 11.3199" stroke="#101010" stroke-linecap="round" stroke-linejoin="round"/>
<path id="Path_3" d="M3.19687 11.8098C3.20989 11.8228 3.20989 11.8439 3.19687 11.8569C3.18385 11.8699 3.16275 11.8699 3.14973 11.8569C3.13671 11.8439 3.13671 11.8228 3.14973 11.8098C3.16275 11.7967 3.18385 11.7967 3.19687 11.8098" stroke="#101010" stroke-linecap="round" stroke-linejoin="round"/>
<path id="Path_4" d="M4.69687 11.8098C4.70989 11.8228 4.70989 11.8439 4.69687 11.8569C4.68385 11.8699 4.66275 11.8699 4.64973 11.8569C4.63671 11.8439 4.63671 11.8228 4.64973 11.8098C4.66275 11.7967 4.68385 11.7967 4.69687 11.8098" stroke="#101010" stroke-linecap="round" stroke-linejoin="round"/>
<path id="Path_5" d="M6.19687 11.8098C6.20989 11.8228 6.20989 11.8439 6.19687 11.8569C6.18385 11.8699 6.16275 11.8699 6.14973 11.8569C6.13671 11.8439 6.13671 11.8228 6.14973 11.8098C6.16275 11.7967 6.18385 11.7967 6.19687 11.8098" stroke="#101010" stroke-linecap="round" stroke-linejoin="round"/>
<path id="Path_6" d="M9.33329 7.19596C9.33329 6.75796 9.60395 6.52063 9.87529 6.33796C10.1406 6.15929 10.406 5.92663 10.406 5.49796C10.406 4.90529 9.92595 4.42529 9.33329 4.42529C8.74062 4.42529 8.26062 4.90529 8.26062 5.49796" stroke="#101010" stroke-linecap="round" stroke-linejoin="round"/>
<path id="Path_7" d="M9.33333 8.80524C9.29667 8.80524 9.26667 8.83524 9.26667 8.87191C9.26667 8.90857 9.29667 8.93857 9.33333 8.93857C9.37 8.93857 9.4 8.90857 9.4 8.87191C9.4 8.83524 9.37 8.80524 9.33333 8.80524" stroke="#101010" stroke-linecap="round" stroke-linejoin="round"/>
</g>
</g>
</svg>
