<svg width="16" height="17" viewBox="0 0 16 17" fill="none" xmlns="http://www.w3.org/2000/svg">
<path d="M4.72216 15.042C4.23016 15.042 3.76416 14.9333 3.3455 14.7393L1.3335 15.1667L1.75416 13.1507C1.55883 12.7307 1.4495 12.2627 1.4495 11.7693C1.4495 9.964 2.91283 8.5 4.71883 8.5C6.52483 8.5 7.98816 9.964 7.98816 11.7693C7.98816 13.5747 6.52416 15.0387 4.71883 15.0387" stroke="#F24200" stroke-linecap="round" stroke-linejoin="round"/>
<path d="M4.408 8.51259C4.146 7.94259 4 7.31792 4 6.65992C4 3.98192 6.39867 1.83325 9.33333 1.83325C12.268 1.83325 14.6667 3.98192 14.6667 6.65992C14.6667 8.24259 13.8253 9.63592 12.534 10.5146C12.5347 11.0186 12.5333 11.6979 12.5333 12.4113L10.4407 11.3806C10.0827 11.4493 9.71267 11.4866 9.33333 11.4866C8.85933 11.4866 8.40133 11.4253 7.96267 11.3199" stroke="#F24200" stroke-linecap="round" stroke-linejoin="round"/>
<path d="M3.19675 11.8098C3.20976 11.8228 3.20976 11.8439 3.19675 11.8569C3.18373 11.8699 3.16262 11.8699 3.14961 11.8569C3.13659 11.8439 3.13659 11.8228 3.14961 11.8098C3.16262 11.7967 3.18373 11.7967 3.19675 11.8098" stroke="#F24200" stroke-linecap="round" stroke-linejoin="round"/>
<path d="M4.69675 11.8098C4.70976 11.8228 4.70976 11.8439 4.69675 11.8569C4.68373 11.8699 4.66262 11.8699 4.64961 11.8569C4.63659 11.8439 4.63659 11.8228 4.64961 11.8098C4.66262 11.7967 4.68373 11.7967 4.69675 11.8098" stroke="#F24200" stroke-linecap="round" stroke-linejoin="round"/>
<path d="M6.19675 11.8098C6.20976 11.8228 6.20976 11.8439 6.19675 11.8569C6.18373 11.8699 6.16262 11.8699 6.14961 11.8569C6.13659 11.8439 6.13659 11.8228 6.14961 11.8098C6.16262 11.7967 6.18373 11.7967 6.19675 11.8098" stroke="#F24200" stroke-linecap="round" stroke-linejoin="round"/>
<path d="M9.33341 7.19596C9.33341 6.75796 9.60408 6.52063 9.87541 6.33796C10.1407 6.15929 10.4061 5.92663 10.4061 5.49796C10.4061 4.90529 9.92608 4.42529 9.33341 4.42529C8.74074 4.42529 8.26074 4.90529 8.26074 5.49796" stroke="#F24200" stroke-linecap="round" stroke-linejoin="round"/>
<path d="M9.33333 8.80524C9.29667 8.80524 9.26667 8.83524 9.26667 8.87191C9.26667 8.90857 9.29667 8.93857 9.33333 8.93857C9.37 8.93857 9.4 8.90857 9.4 8.87191C9.4 8.83524 9.37 8.80524 9.33333 8.80524" stroke="#F24200" stroke-linecap="round" stroke-linejoin="round"/>
</svg>
