<svg width="534" height="389" viewBox="0 0 534 389" fill="none" xmlns="http://www.w3.org/2000/svg">
<g clip-path="url(#clip0_2256_2113)">
<path opacity="0.05" d="M158.212 281.784C107.599 252.449 107.33 204.803 157.584 175.468C207.884 146.134 289.996 146.134 340.61 175.468C391.223 204.758 391.492 252.449 341.193 281.784C290.893 311.074 208.826 311.074 158.167 281.784H158.212Z" fill="black"/>
<g style="mix-blend-mode:multiply" opacity="0.6">
<path opacity="0.2" d="M523.949 368.484L393.242 292.807C390.595 291.278 386.332 291.278 383.685 292.807L382.922 293.257L355.507 277.375C397.46 246.601 393.781 201.564 344.648 173.129C291.791 142.534 206.044 142.534 153.546 173.129C101.048 203.723 101.317 253.53 154.174 284.124C203.127 312.469 280.304 314.494 333.116 290.288L360.577 306.17L359.814 306.62C357.167 308.15 357.167 310.624 359.814 312.154L490.521 387.83C493.168 389.36 497.431 389.36 500.078 387.83L523.949 374.018C526.597 372.488 526.597 370.014 523.949 368.484ZM158.212 281.784C107.599 252.45 107.33 204.803 157.584 175.469C207.884 146.134 289.996 146.134 340.61 175.469C391.223 204.758 391.492 252.45 341.193 281.784C290.894 311.074 208.826 311.074 158.168 281.784H158.212Z" fill="black"/>
<path opacity="0.4" d="M336.257 214.521C348.955 241.922 320.867 270.086 273.529 277.42C226.191 284.754 177.551 268.512 164.898 241.112C152.245 213.712 180.288 185.547 227.626 178.213C274.965 170.879 323.604 187.121 336.257 214.521Z" fill="black"/>
<path opacity="0.4" d="M209.14 283.044C218.473 303.201 197.833 323.897 163.013 329.296C128.239 334.695 92.4327 322.727 83.1445 302.616C73.8115 282.459 94.4518 261.763 129.271 256.364C164.045 250.965 199.852 262.933 209.14 283.044Z" fill="black"/>
</g>
<path d="M90.548 158.057V233.823C90.548 235.668 91.7146 237.512 94.1825 238.952C98.9836 241.742 106.836 241.742 111.637 238.952C114.015 237.557 115.227 235.758 115.271 233.958V158.192L90.5928 158.057H90.548Z" fill="#979696"/>
<path d="M90.548 158.057V233.823C90.548 235.668 91.7146 237.512 94.1825 238.952C98.9836 241.742 106.836 241.742 111.637 238.952C114.015 237.557 115.227 235.758 115.271 233.958V158.192L90.5928 158.057H90.548Z" fill="url(#paint0_linear_2256_2113)"/>
<path d="M111.592 152.972C109.663 151.848 107.509 151.218 104.817 150.948C99.4325 150.453 94.407 151.938 91.9391 154.772C89.4713 157.562 90.4135 160.846 94.2275 163.051C97.0992 164.715 100.823 165.435 104.862 165.075C108.9 164.715 112.041 163.366 113.881 161.251C116.349 158.461 115.406 155.177 111.592 152.972Z" fill="#979696"/>
<path d="M68.1129 181.767V246.826C68.1129 248.67 69.2795 250.515 71.7474 251.955C76.5485 254.744 84.4008 254.744 89.2019 251.955C91.58 250.56 92.7915 248.76 92.8364 246.961V181.902L68.1578 181.767H68.1129Z" fill="#979696"/>
<path d="M68.1129 181.767V246.826C68.1129 248.67 69.2795 250.515 71.7474 251.955C76.5485 254.744 84.4008 254.744 89.2019 251.955C91.58 250.56 92.7915 248.76 92.8364 246.961V181.902L68.1578 181.767H68.1129Z" fill="url(#paint1_linear_2256_2113)"/>
<path d="M89.1122 176.683C87.1828 175.558 85.029 174.928 82.3368 174.659C76.9524 174.164 71.9269 175.648 69.459 178.483C66.9912 181.272 67.9334 184.557 71.7474 186.761C74.6191 188.426 78.3433 189.146 82.3816 188.786C86.42 188.426 89.5609 187.076 91.4006 184.962C93.8684 182.172 92.9261 178.888 89.1122 176.683Z" fill="#979696"/>
<path d="M45.6329 205.118V259.873C45.6329 261.718 46.7996 263.563 49.2674 265.002C54.0685 267.792 61.9208 267.792 66.7219 265.002C69.1 263.608 70.3115 261.808 70.3564 260.008V205.253L45.6778 205.118H45.6329Z" fill="#E64514"/>
<path d="M45.6329 205.118V259.873C45.6329 261.718 46.7996 263.563 49.2674 265.002C54.0685 267.792 61.9208 267.792 66.7219 265.002C69.1 263.608 70.3115 261.808 70.3564 260.008V205.253L45.6778 205.118H45.6329Z" fill="url(#paint2_linear_2256_2113)"/>
<path d="M66.6322 200.034C64.7028 198.909 62.549 198.279 59.8568 198.009C54.4724 197.514 49.4469 198.999 46.979 201.834C44.5112 204.623 45.4535 207.908 49.2674 210.112C52.1391 211.777 55.8633 212.497 59.9017 212.137C63.94 211.777 67.0809 210.427 68.9206 208.312C71.3884 205.523 70.4461 202.239 66.6322 200.034Z" fill="#E64514"/>
<path d="M22.8389 232.158V273.056C22.8389 274.901 24.0055 276.745 26.4734 278.185C31.2745 280.974 39.1267 280.974 43.9278 278.185C46.306 276.79 47.5175 274.991 47.5623 273.191V232.293L22.8837 232.158H22.8389Z" fill="#979696"/>
<path d="M22.8389 232.158V273.056C22.8389 274.901 24.0055 276.745 26.4734 278.185C31.2745 280.974 39.1267 280.974 43.9278 278.185C46.306 276.79 47.5175 274.991 47.5623 273.191V232.293L22.8837 232.158H22.8389Z" fill="url(#paint3_linear_2256_2113)"/>
<path d="M43.8381 227.074C41.9087 225.949 39.7549 225.319 37.0627 225.049C31.6783 224.554 26.6528 226.039 24.185 228.874C21.7171 231.663 22.6594 234.948 26.4734 237.152C29.3451 238.817 33.0693 239.537 37.1076 239.177C41.1459 238.817 44.2868 237.467 46.1265 235.353C48.5944 232.563 47.6521 229.279 43.8381 227.074Z" fill="#979696"/>
<path d="M0 257.714V286.283C0 288.128 1.16662 289.973 3.63448 291.413C8.43559 294.202 16.2879 294.202 21.089 291.413C23.4671 290.018 24.6786 288.218 24.7235 286.418V257.849L0 257.714Z" fill="#979696"/>
<path d="M0 257.714V286.283C0 288.128 1.16662 289.973 3.63448 291.413C8.43559 294.202 16.2879 294.202 21.089 291.413C23.4671 290.018 24.6786 288.218 24.7235 286.418V257.849L0 257.714Z" fill="url(#paint4_linear_2256_2113)"/>
<path d="M20.9992 252.629C19.0698 251.505 16.9161 250.875 14.2239 250.605C8.83943 250.11 3.81397 251.595 1.34611 254.429C-1.12175 257.219 -0.179473 260.503 3.63449 262.708C6.50618 264.372 10.2304 265.092 14.2687 264.732C18.307 264.372 21.448 263.023 23.2876 260.908C25.7555 258.118 24.8132 254.834 20.9992 252.629Z" fill="#979696"/>
<path d="M169.161 117.384H164.001V223.835C163.911 229.729 165.661 235.578 169.161 241.202V117.429V117.384Z" fill="#979696"/>
<path d="M317.681 118.194L226.056 117.699L164.045 117.384V223.835C163.821 236.837 172.302 249.84 189.397 259.738C202.813 267.522 219.55 272.111 236.915 273.731C237.184 273.731 237.408 273.731 237.677 273.776C241.222 274.091 244.767 274.271 248.312 274.316C248.446 274.316 248.581 274.316 248.76 274.316C255.984 274.406 263.209 273.956 270.298 273.011C270.971 272.921 271.644 272.831 272.272 272.741C275.368 272.291 278.464 271.706 281.516 271.076C281.83 270.986 282.189 270.941 282.503 270.896C285.778 270.131 288.964 269.276 292.105 268.287C292.823 268.062 293.496 267.792 294.214 267.567C296.637 266.757 298.97 265.857 301.258 264.912C302.066 264.552 302.874 264.237 303.681 263.877C306.508 262.618 309.29 261.268 311.893 259.738C313.957 258.523 315.886 257.309 317.726 256.004C330.559 246.915 337.065 235.847 337.244 224.734V118.284L317.726 118.194H317.681Z" fill="#272727"/>
<path d="M317.681 118.194L226.056 117.699L164.045 117.384V223.835C163.821 236.837 172.302 249.84 189.397 259.738C202.813 267.522 219.55 272.111 236.915 273.731C237.184 273.731 237.408 273.731 237.677 273.776C241.222 274.091 244.767 274.271 248.312 274.316C248.446 274.316 248.581 274.316 248.76 274.316C255.984 274.406 263.209 273.956 270.298 273.011C270.971 272.921 271.644 272.831 272.272 272.741C275.368 272.291 278.464 271.706 281.516 271.076C281.83 270.986 282.189 270.941 282.503 270.896C285.778 270.131 288.964 269.276 292.105 268.287C292.823 268.062 293.496 267.792 294.214 267.567C296.637 266.757 298.97 265.857 301.258 264.912C302.066 264.552 302.874 264.237 303.681 263.877C306.508 262.618 309.29 261.268 311.893 259.738C313.957 258.523 315.886 257.309 317.726 256.004C330.559 246.915 337.065 235.847 337.244 224.734V118.284L317.726 118.194H317.681Z" fill="url(#paint5_linear_2256_2113)"/>
<path d="M303.771 118.104V263.788C306.553 262.528 309.245 261.178 311.803 259.693C328.495 250.02 336.975 237.377 337.155 224.735V118.284L303.771 118.104Z" fill="#E64514"/>
<path d="M250.6 117.429L303.681 157.382C280.977 167.55 253.92 170.474 226.325 165.75L250.6 117.429Z" fill="#212121"/>
<path d="M311.668 81.7503C333.475 94.393 343.077 113.335 333.834 131.691C328.45 142.354 318.803 150.588 303.637 157.337L250.555 117.384L209.723 113.964L167.276 103.121C180.692 76.4412 228.838 61.189 274.83 69.0625C289.233 71.5371 301.707 75.9463 311.623 81.7053L311.668 81.7503Z" fill="#E64514"/>
<path d="M250.6 117.429L226.325 165.75C211.787 163.276 199.313 159.001 189.352 153.243C180.468 148.068 173.558 141.725 168.981 134.301L250.645 117.429H250.6Z" fill="#212121"/>
<path d="M250.6 117.429L168.936 134.301C162.475 123.818 161.937 113.83 167.321 103.167L250.6 117.429Z" fill="#212121"/>
<path d="M144.661 244.891V326.101C161.488 326.416 178.493 322.862 191.371 315.438C203.576 308.375 209.723 299.151 209.903 289.883V245.206L144.706 244.846L144.661 244.891Z" fill="#E64514"/>
<path d="M97.5478 244.621V312.604C98.8939 313.594 100.375 314.539 101.945 315.438C116.887 324.077 137.393 327.451 156.732 325.652V244.936L97.5029 244.621H97.5478Z" fill="#E64514"/>
<path d="M202.768 245.206V306.35C207.345 301.221 209.768 295.552 209.858 289.883V245.206H202.768Z" fill="#E64514"/>
<path d="M102.439 244.666L83.4585 244.576V289.253C83.3239 298.746 89.4711 308.24 101.99 315.483C102.124 315.573 102.304 315.663 102.483 315.753V244.711L102.439 244.666Z" fill="#979696"/>
<path d="M146.636 244.441L156.687 280.57C136.091 282.459 117.021 278.86 102.214 270.312L146.636 244.441Z" fill="#E64514"/>
<path d="M191.057 218.571C210.8 229.999 215.422 246.646 202.903 261.043L146.681 244.441L191.102 218.571H191.057Z" fill="#E64514"/>
<path d="M202.858 261.043C193.435 271.841 177.282 278.68 156.687 280.57L146.636 244.441L202.858 261.043Z" fill="#E64514"/>
<path d="M146.636 244.441L102.214 270.311C82.4714 258.884 77.8497 242.237 90.4134 227.839L146.636 244.441Z" fill="#979696"/>
<path d="M156.283 208.313L146.636 244.441L90.4133 227.839C102.977 213.442 128.777 205.793 156.283 208.313Z" fill="#979696"/>
<path d="M191.057 218.571L146.636 244.441L156.283 208.312C170.058 209.572 181.141 212.857 191.012 218.571H191.057Z" fill="#E64514"/>
<path style="mix-blend-mode:screen" d="M209.544 247.59C209.319 248.625 209.005 250.2 208.198 252C206.762 255.734 203.352 260.413 198.192 264.777C193.032 269.187 185.897 272.831 177.821 275.395C169.744 277.96 160.725 279.355 151.706 279.805C142.687 280.345 133.579 279.715 125.278 277.96C116.977 276.205 109.438 273.551 103.516 270.311C97.503 267.162 93.0159 263.563 90.3237 260.638C87.5866 257.714 86.5098 255.644 86.5098 255.644C86.5098 255.644 87.452 257.759 90.0545 260.863C92.6121 263.967 96.8748 267.972 102.932 271.391C108.9 274.901 116.438 278.005 124.919 279.85C133.354 281.739 142.642 282.459 151.841 282.009C161.039 281.469 170.193 279.94 178.449 277.24C186.705 274.541 193.839 270.356 199.044 265.722C204.249 261.088 207.345 255.959 208.602 252.135C209.275 250.245 209.544 248.67 209.678 247.59C209.813 246.511 209.813 245.971 209.813 245.971C209.813 245.971 209.813 246.556 209.589 247.59H209.544Z" fill="url(#paint6_radial_2256_2113)"/>
<path d="M378.794 78.8258L378.704 106.811C378.749 87.4192 366.051 68.0277 340.565 53.3154C289.951 23.9806 207.839 23.9806 157.539 53.3154C132.547 67.8927 120.073 86.9693 119.983 106.091L120.073 78.1059C120.118 58.9843 132.636 39.9078 157.629 25.3304C207.928 -4.00434 290.041 -4.00434 340.654 25.3304C366.141 40.0877 378.839 59.4792 378.794 78.8258Z" fill="#979696"/>
<path d="M157.629 42.0675C207.928 12.7327 290.041 12.7327 340.654 42.0675C364.032 55.61 376.64 73.0219 378.525 90.7937C380.723 69.9625 368.115 48.6813 340.654 32.7991C290.041 3.46442 207.928 3.46442 157.629 32.7991C130.572 48.5913 118.143 69.6925 120.342 90.3888C122.182 72.7969 134.566 55.52 157.629 42.1125V42.0675Z" fill="url(#paint7_linear_2256_2113)"/>
<path style="mix-blend-mode:screen" opacity="0.2" d="M158.212 148.383C208.826 177.673 290.938 177.673 341.238 148.383C391.537 119.049 391.268 71.4022 340.654 42.0674C290.041 12.7327 207.928 12.7327 157.629 42.0674C107.33 71.3572 107.599 119.049 158.257 148.383H158.212Z" fill="url(#paint8_linear_2256_2113)"/>
<path d="M384.493 78.8259L384.403 106.811C384.358 126.787 371.301 146.719 345.186 161.926C292.688 192.52 206.941 192.52 154.129 161.926C127.521 146.539 114.24 126.247 114.284 106.046L114.374 78.061C114.329 98.3074 127.611 118.554 154.219 133.941C207.076 164.535 292.778 164.535 345.276 133.941C371.346 118.734 384.403 98.8023 384.493 78.8259Z" fill="#979696"/>
<path d="M384.493 78.8259L384.403 106.811C384.358 126.787 371.301 146.719 345.186 161.926C292.688 192.52 206.941 192.52 154.129 161.926C127.521 146.539 114.24 126.247 114.284 106.046L114.374 78.061C114.329 98.3074 127.611 118.554 154.219 133.941C207.076 164.535 292.778 164.535 345.276 133.941C371.346 118.734 384.403 98.8023 384.493 78.8259Z" fill="url(#paint9_linear_2256_2113)"/>
<path d="M344.648 22.9459C397.505 53.5404 397.774 103.346 345.231 133.941C292.733 164.535 206.986 164.535 154.174 133.941C101.317 103.346 101.048 53.5404 153.546 22.9459C206.044 -7.64862 291.791 -7.64862 344.648 22.9459ZM158.212 131.601C208.826 160.891 290.938 160.891 341.238 131.601C391.537 102.267 391.268 54.6202 340.655 25.2855C290.041 -4.04927 207.929 -4.04927 157.629 25.2855C107.33 54.5752 107.599 102.267 158.257 131.601H158.212Z" fill="white"/>
<path d="M369.551 174.838C369.551 181.767 374.397 184.602 380.409 181.137C386.422 177.673 391.268 169.214 391.268 162.286C391.268 155.357 386.422 152.522 380.409 155.987C374.397 159.451 369.551 167.91 369.551 174.838Z" fill="#8712BA"/>
<path d="M388.172 155.267L353.039 134.931C351.064 133.761 348.327 133.896 345.276 135.651C339.263 139.115 334.417 147.573 334.417 154.502C334.417 157.922 335.584 160.351 337.514 161.521L372.647 181.857C370.717 180.687 369.551 178.303 369.551 174.839C369.551 167.91 374.397 159.451 380.409 155.987C383.461 154.232 386.198 154.097 388.172 155.267Z" fill="#979696"/>
<path d="M388.172 155.267L353.039 134.931C351.064 133.761 348.327 133.896 345.276 135.651C339.263 139.115 334.417 147.573 334.417 154.502C334.417 157.922 335.584 160.351 337.514 161.521L372.647 181.857C370.717 180.687 369.551 178.303 369.551 174.839C369.551 167.91 374.397 159.451 380.409 155.987C383.461 154.232 386.198 154.097 388.172 155.267Z" fill="url(#paint10_linear_2256_2113)"/>
<path d="M497.072 257.489C497.072 269.322 505.328 274.091 515.558 268.197C525.744 262.303 534.045 247.905 534.045 236.117C534.045 228.334 530.455 223.61 525.116 222.98C522.334 222.62 519.058 223.43 515.558 225.454C505.373 231.348 497.072 245.746 497.072 257.534V257.489Z" fill="#535353"/>
<path d="M528.705 224.15L396.652 147.708C393.287 145.684 388.621 145.954 383.461 148.923C373.275 154.817 364.974 169.214 364.974 181.002C364.974 186.851 366.993 190.946 370.269 192.925L502.322 269.366C499.046 267.387 497.027 263.293 497.027 257.444C497.027 245.611 505.283 231.258 515.514 225.364C520.674 222.395 525.34 222.125 528.705 224.15Z" fill="#282828"/>
<path style="mix-blend-mode:screen" d="M497.072 257.489C501.694 234.813 516.905 222.845 525.116 222.935C514.571 219.246 494.784 238.187 497.072 257.489Z" fill="url(#paint11_radial_2256_2113)"/>
</g>
<defs>
<linearGradient id="paint0_linear_2256_2113" x1="39.5306" y1="199.539" x2="108.361" y2="199.539" gradientUnits="userSpaceOnUse">
<stop/>
<stop offset="1" stop-opacity="0"/>
</linearGradient>
<linearGradient id="paint1_linear_2256_2113" x1="29.1656" y1="217.896" x2="83.3688" y2="217.896" gradientUnits="userSpaceOnUse">
<stop/>
<stop offset="1" stop-opacity="0"/>
</linearGradient>
<linearGradient id="paint2_linear_2256_2113" x1="-6.41647" y1="236.073" x2="60.2606" y2="236.073" gradientUnits="userSpaceOnUse">
<stop/>
<stop offset="1" stop-opacity="0"/>
</linearGradient>
<linearGradient id="paint3_linear_2256_2113" x1="-13.8201" y1="256.229" x2="36.5243" y2="256.229" gradientUnits="userSpaceOnUse">
<stop/>
<stop offset="1" stop-opacity="0"/>
</linearGradient>
<linearGradient id="paint4_linear_2256_2113" x1="-31.7232" y1="275.575" x2="14.5379" y2="275.575" gradientUnits="userSpaceOnUse">
<stop/>
<stop offset="1" stop-opacity="0"/>
</linearGradient>
<linearGradient id="paint5_linear_2256_2113" x1="-19.8325" y1="195.85" x2="282.592" y2="195.85" gradientUnits="userSpaceOnUse">
<stop/>
<stop offset="1" stop-opacity="0"/>
</linearGradient>
<radialGradient id="paint6_radial_2256_2113" cx="0" cy="0" r="1" gradientUnits="userSpaceOnUse" gradientTransform="translate(152.424 280.165) scale(85.5674 85.7996)">
<stop stop-color="white"/>
<stop offset="0.24" stop-color="#BEBEBE"/>
<stop offset="0.77" stop-color="#363636"/>
<stop offset="1"/>
</radialGradient>
<linearGradient id="paint7_linear_2256_2113" x1="-88.8429" y1="105.551" x2="281.508" y2="54.4427" gradientUnits="userSpaceOnUse">
<stop/>
<stop offset="1" stop-opacity="0"/>
</linearGradient>
<linearGradient id="paint8_linear_2256_2113" x1="120.073" y1="95.2029" x2="378.794" y2="95.2029" gradientUnits="userSpaceOnUse">
<stop stop-color="#FFC5FF"/>
<stop offset="1" stop-color="#FFDEFF"/>
</linearGradient>
<linearGradient id="paint9_linear_2256_2113" x1="-64.8822" y1="131.466" x2="295.156" y2="131.466" gradientUnits="userSpaceOnUse">
<stop/>
<stop offset="1" stop-opacity="0"/>
</linearGradient>
<linearGradient id="paint10_linear_2256_2113" x1="356.718" y1="340.139" x2="362.132" y2="121.884" gradientUnits="userSpaceOnUse">
<stop/>
<stop offset="1" stop-opacity="0"/>
</linearGradient>
<radialGradient id="paint11_radial_2256_2113" cx="0" cy="0" r="1" gradientUnits="userSpaceOnUse" gradientTransform="translate(519.911 222.53) scale(45.4535 45.5768)">
<stop stop-color="#F5F5F5"/>
<stop offset="0.05" stop-color="#C7C7C7"/>
<stop offset="0.09" stop-color="#9C9C9C"/>
<stop offset="0.14" stop-color="#777777"/>
<stop offset="0.2" stop-color="#565656"/>
<stop offset="0.25" stop-color="#3B3B3B"/>
<stop offset="0.32" stop-color="#252525"/>
<stop offset="0.4" stop-color="#141414"/>
<stop offset="0.49" stop-color="#080808"/>
<stop offset="0.63" stop-color="#010101"/>
<stop offset="1"/>
</radialGradient>
<clipPath id="clip0_2256_2113">
<rect width="534" height="389" fill="white"/>
</clipPath>
</defs>
</svg>
