<svg width="424" height="432" viewBox="0 0 424 432" fill="none" xmlns="http://www.w3.org/2000/svg">
<g clip-path="url(#clip0_2256_2470)">
<g style="mix-blend-mode:multiply" opacity="0.4">
<g style="mix-blend-mode:multiply">
<path d="M418.915 340.531C425.592 344.379 425.643 350.638 419.018 354.485L290.405 429.127C283.779 432.975 272.993 432.975 266.316 429.127L5.08482 278.458C-1.59234 274.611 -1.64371 268.352 4.9821 264.504L133.595 189.862C140.22 186.015 151.007 186.015 157.735 189.862L419.018 340.531H418.915Z" fill="#D8D8D8"/>
</g>
</g>
<path d="M0 231.005V239.675C0 242.24 1.64361 244.754 5.03356 246.703L266.316 397.372C272.993 401.22 283.78 401.22 290.405 397.372L419.018 322.73C422.305 320.832 423.949 318.319 424 315.805V307.135L0 231.005Z" fill="#737373"/>
<path d="M418.915 300.107C425.592 303.954 425.643 310.213 419.018 314.061L290.405 388.703C283.779 392.55 272.993 392.55 266.316 388.703L5.08482 238.034C-1.59234 234.186 -1.64371 227.927 4.9821 224.08L133.595 149.438C140.22 145.59 151.007 145.59 157.735 149.438L419.018 300.107H418.915Z" fill="black"/>
<g style="mix-blend-mode:screen" opacity="0.3">
<path d="M147.308 146.616C142.378 146.309 137.293 147.232 133.543 149.438L4.9821 224.08C-1.64371 227.927 -1.59234 234.135 5.08482 238.034L147.308 320.063V146.616Z" fill="#404040"/>
</g>
<path d="M36.6731 205.663H60.8136L112.998 175.601V161.34L36.6731 205.663Z" fill="#404040"/>
<path d="M365.909 351.92L350.243 360.949C349.01 361.667 348.034 361.257 348.034 360.026V359C348.034 357.769 349.01 356.178 350.243 355.511L365.909 346.483C367.141 345.764 368.117 346.175 368.117 347.406V348.432C368.117 349.663 367.141 351.253 365.909 351.92Z" fill="black"/>
<path d="M366.884 351.099L362.365 348.483L350.294 355.46C349.062 356.178 348.086 357.769 348.086 358.948V359.974C348.086 361.206 349.062 361.616 350.294 360.898L365.96 351.869C366.32 351.664 366.628 351.407 366.936 351.048L366.884 351.099Z" fill="#232323"/>
<path d="M61.8921 273.38C61.7381 272.969 61.4812 272.61 61.1731 272.251C60.9162 271.994 60.6594 271.738 60.3513 271.584L42.2715 261.17C41.7579 260.862 41.2957 260.862 40.9875 261.016L39.5493 261.888C39.8575 261.683 40.3198 261.734 40.8334 262.042L58.9131 272.456C59.2213 272.61 59.4781 272.867 59.7349 273.123C60.0431 273.431 60.2485 273.841 60.454 274.252C60.6594 274.713 60.7622 275.175 60.7622 275.637V277.945C60.7622 278.51 60.5567 278.92 60.1972 279.125L61.6353 278.253C61.9435 278.048 62.149 277.637 62.149 277.073V274.765C62.149 274.303 62.0462 273.841 61.8408 273.38H61.8921Z" fill="#D6D6D6"/>
<path d="M58.9131 272.456L40.8334 262.042C39.8062 261.478 38.9844 261.939 38.9844 263.068V265.377C38.9844 266.557 39.8062 267.942 40.8334 268.557L58.9131 278.971C59.9404 279.536 60.7622 279.074 60.7622 277.945V275.637C60.7622 274.457 59.9404 273.072 58.9131 272.456Z" fill="#979696"/>
<path d="M92.1448 290.822C91.9907 290.411 91.7339 290.052 91.4257 289.693C91.1689 289.437 90.9121 289.18 90.6039 289.026L72.5242 278.612C72.0106 278.304 71.5483 278.304 71.2402 278.458L69.802 279.33C70.1102 279.125 70.5724 279.176 71.0861 279.484L89.1658 289.898C89.474 290.052 89.7308 290.309 89.9876 290.565C90.2958 290.873 90.5012 291.283 90.7067 291.694C90.9121 292.155 91.0148 292.617 91.0148 293.079V295.387C91.0148 295.952 90.8094 296.362 90.4499 296.567L91.888 295.695C92.1962 295.49 92.4016 295.08 92.4016 294.515V292.207C92.4016 291.745 92.2989 291.283 92.0935 290.822H92.1448Z" fill="#D6D6D6"/>
<path d="M89.1658 289.898L71.0861 279.484C70.0589 278.92 69.2371 279.382 69.2371 280.51V282.819C69.2371 283.999 70.0589 285.384 71.0861 285.999L89.1658 296.413C90.1931 296.978 91.0149 296.516 91.0149 295.387V293.079C91.0149 291.899 90.1931 290.514 89.1658 289.898Z" fill="#979696"/>
<mask id="mask0_2256_2470" style="mask-type:luminance" maskUnits="userSpaceOnUse" x="0" y="146" width="424" height="246">
<path d="M418.915 300.107C425.592 303.954 425.643 310.213 419.018 314.061L290.405 388.703C283.779 392.55 272.993 392.55 266.316 388.703L5.08482 238.034C-1.59234 234.186 -1.64371 227.927 4.9821 224.08L133.595 149.438C140.22 145.59 151.007 145.59 157.735 149.438L419.018 300.107H418.915Z" fill="white"/>
</mask>
<g mask="url(#mask0_2256_2470)">
<g style="mix-blend-mode:screen">
<path d="M171.706 302.108C170.935 304.16 168.675 305.391 167.956 304.16C163.693 296.926 161.228 247.319 154.961 240.239C154.448 239.675 153.215 240.239 152.599 241.419C149.312 247.575 145.151 267.583 142.121 282.716C141.71 284.614 138.679 286.358 138.371 284.819C136.522 275.278 130.667 257.476 127.996 259.015C122.243 262.35 115.72 342.635 112.536 352.844C111.919 354.844 109.505 356.127 108.786 354.947C106.629 351.253 101.236 291.181 94.3534 295.131C89.628 297.85 85.2622 329.861 82.8995 339.454C82.3858 341.455 79.5095 343.045 79.15 341.558C74.9382 324.269 71.4969 287.282 66.7715 290.873C63.998 291.745 61.4298 315.754 60.9676 319.345C58.9644 334.786 56.9613 360.744 53.3145 370.388C52.5441 372.44 50.2841 373.672 49.565 372.492C47.4078 368.798 46.586 356.845 41.501 325.398C40.0115 316.318 39.4465 308.879 36.6216 307.648V252.705L185.163 167.034V208.023C182.389 208.895 175.301 292.515 171.706 302.108Z" fill="#E64514"/>
</g>
<g opacity="0.3">
<path d="M362.93 292.668V393.781C362.93 396.244 364.522 398.706 367.758 400.604C374.229 404.349 384.707 404.349 391.128 400.604C394.312 398.758 395.956 396.346 395.956 393.935V292.822L362.878 292.668H362.93Z" fill="#E64514"/>
<path d="M391.076 285.897C388.508 284.409 385.581 283.537 381.985 283.229C374.794 282.562 368.015 284.563 364.779 288.308C361.491 292.053 362.724 296.413 367.86 299.389C371.713 301.646 376.695 302.569 382.088 302.056C387.481 301.543 391.693 299.799 394.158 296.978C397.445 293.233 396.213 288.872 391.076 285.897Z" fill="#424242"/>
<path d="M332.831 309.598V396.449C332.831 398.912 334.423 401.374 337.659 403.272C344.131 407.017 354.609 407.017 361.029 403.272C364.214 401.425 365.857 399.014 365.857 396.603V309.752L332.78 309.598H332.831Z" fill="#979696"/>
<path d="M332.831 309.598V396.449C332.831 398.912 334.423 401.374 337.659 403.272C344.131 407.017 354.609 407.017 361.029 403.272C364.214 401.425 365.857 399.014 365.857 396.603V309.752L332.78 309.598H332.831Z" fill="url(#paint0_linear_2256_2470)"/>
<path d="M360.978 302.826C358.41 301.338 355.482 300.466 351.887 300.158C344.696 299.491 337.916 301.492 334.68 305.237C331.393 308.982 332.626 313.343 337.762 316.318C341.614 318.575 346.596 319.499 351.989 318.986C357.382 318.473 361.594 316.728 364.06 313.907C367.347 310.162 366.114 305.801 360.978 302.826Z" fill="#FFD03B"/>
<path d="M302.681 325.295V398.398C302.681 400.861 304.273 403.323 307.509 405.221C313.981 408.966 324.459 408.966 330.879 405.221C334.064 403.374 335.707 400.963 335.707 398.552V325.449L302.63 325.295H302.681Z" fill="#E64514"/>
<path d="M302.681 325.295V398.398C302.681 400.861 304.273 403.323 307.509 405.221C313.981 408.966 324.459 408.966 330.879 405.221C334.064 403.374 335.707 400.963 335.707 398.552V325.449L302.63 325.295H302.681Z" fill="url(#paint1_linear_2256_2470)"/>
<path d="M330.879 318.524C328.311 317.036 325.383 316.164 321.788 315.856C314.597 315.189 307.817 317.19 304.581 320.935C301.294 324.68 302.527 329.04 307.663 332.016C311.515 334.273 316.498 335.196 321.891 334.683C327.284 334.17 331.495 332.426 333.961 329.605C337.248 325.86 336.015 321.499 330.879 318.524Z" fill="#424242"/>
<path d="M272.12 343.764V398.347C272.12 400.81 273.712 403.272 276.948 405.17C283.42 408.915 293.898 408.915 300.318 405.17C303.503 403.323 305.146 400.912 305.146 398.501V343.918L272.069 343.764H272.12Z" fill="#979696"/>
<path d="M272.12 343.764V398.347C272.12 400.81 273.712 403.272 276.948 405.17C283.42 408.915 293.898 408.915 300.318 405.17C303.503 403.323 305.146 400.912 305.146 398.501V343.918L272.069 343.764H272.12Z" fill="url(#paint2_linear_2256_2470)"/>
<path d="M300.267 336.992C297.699 335.504 294.771 334.632 291.176 334.324C283.985 333.658 277.205 335.658 273.969 339.403C270.682 343.148 271.915 347.509 277.051 350.484C280.903 352.741 285.885 353.665 291.278 353.152C296.671 352.639 300.883 350.894 303.349 348.073C306.636 344.328 305.403 339.967 300.267 336.992Z" fill="#FFACF6"/>
<path d="M241.559 362.847V400.963C241.559 403.426 243.151 405.888 246.387 407.786C252.859 411.531 263.337 411.531 269.757 407.786C272.942 405.939 274.585 403.528 274.585 401.117V363.001L241.508 362.847H241.559Z" fill="#979696"/>
<path d="M241.559 362.847V400.963C241.559 403.426 243.151 405.888 246.387 407.786C252.859 411.531 263.337 411.531 269.757 407.786C272.942 405.939 274.585 403.528 274.585 401.117V363.001L241.508 362.847H241.559Z" fill="url(#paint3_linear_2256_2470)"/>
<path d="M269.706 356.076C267.138 354.588 264.21 353.716 260.615 353.408C253.424 352.741 246.644 354.742 243.408 358.487C240.121 362.232 241.354 366.592 246.49 369.568C250.342 371.825 255.324 372.748 260.718 372.235C266.111 371.722 270.322 369.978 272.788 367.156C276.075 363.411 274.842 359.051 269.706 356.076Z" fill="#E467E8"/>
</g>
</g>
<g opacity="0.1">
<path d="M198.928 326.834L184.649 335.042L181.568 333.298L195.847 325.039L198.928 326.834Z" fill="white"/>
<path d="M212.334 319.088L203.037 324.423L200.007 322.679L209.304 317.292L212.334 319.088Z" fill="white"/>
<path d="M235.755 305.596L216.494 316.677L213.413 314.933L232.674 303.801L235.755 305.596Z" fill="white"/>
<path d="M261.95 290.514L239.916 303.185L236.834 301.44L258.869 288.718L261.95 290.514Z" fill="white"/>
<path d="M262.978 286.358L266.06 288.102L288.094 275.431L285.012 273.636L262.978 286.358Z" fill="white"/>
<path d="M301.397 267.736L292.203 273.02L289.173 271.276L298.315 265.941L301.397 267.736Z" fill="white"/>
<path d="M327.849 252.5L305.557 265.376L302.476 263.581L324.767 250.705L327.849 252.5Z" fill="white"/>
<path d="M215.21 327.091L192.97 339.864L189.888 338.12L212.129 325.295L215.21 327.091Z" fill="white"/>
<path d="M228.616 319.344L219.319 324.68L216.238 322.935L225.534 317.549L228.616 319.344Z" fill="white"/>
<path d="M244.128 310.418L232.725 316.933L229.695 315.189L241.046 308.623L244.128 310.418Z" fill="white"/>
<path d="M260.872 300.722L248.237 308.007L245.155 306.263L257.79 298.978L260.872 300.722Z" fill="white"/>
<path d="M261.899 296.567L264.981 298.363L285.321 286.666L282.239 284.871L261.899 296.567Z" fill="white"/>
<path d="M303.092 276.406L289.429 284.255L286.348 282.511L300.01 274.611L303.092 276.406Z" fill="white"/>
<path d="M336.221 257.271L307.201 273.995L304.171 272.251L333.139 255.527L336.221 257.271Z" fill="white"/>
<path d="M215.621 336.427L201.342 344.687L198.26 342.891L212.539 334.683L215.621 336.427Z" fill="white"/>
<path d="M229.027 328.732L219.73 334.068L216.7 332.272L225.996 326.937L229.027 328.732Z" fill="white"/>
<path d="M252.448 315.189L233.187 326.321L230.105 324.577L249.367 313.445L252.448 315.189Z" fill="white"/>
<path d="M278.643 300.107L256.609 312.829L253.527 311.034L275.562 298.363L278.643 300.107Z" fill="white"/>
<path d="M279.671 295.951L282.752 297.747L304.787 285.024L301.705 283.28L279.671 295.951Z" fill="white"/>
<path d="M318.09 277.381L308.896 282.665L305.814 280.869L315.008 275.585L318.09 277.381Z" fill="white"/>
<path d="M344.542 262.093L322.25 274.97L319.169 273.225L341.46 260.349L344.542 262.093Z" fill="white"/>
<path d="M231.903 336.684L209.663 349.509L206.581 347.713L228.821 334.94L231.903 336.684Z" fill="white"/>
<path d="M245.309 328.938L236.012 334.324L232.93 332.529L242.227 327.193L245.309 328.938Z" fill="white"/>
<path d="M260.82 320.011L249.418 326.578L246.387 324.782L257.739 318.267L260.82 320.011Z" fill="white"/>
<path d="M277.565 310.367L264.929 317.651L261.848 315.856L274.483 308.571L277.565 310.367Z" fill="white"/>
<path d="M278.592 306.212L281.674 307.956L302.013 296.259L298.932 294.515L278.592 306.212Z" fill="white"/>
<path d="M319.785 285.999L306.123 293.899L303.041 292.104L316.703 284.255L319.785 285.999Z" fill="white"/>
<path d="M352.914 266.915L323.894 283.639L320.864 281.844L349.832 265.12L352.914 266.915Z" fill="white"/>
<path d="M95.9458 267.429L81.6156 275.688L78.5852 273.892L92.8641 265.633L95.9458 267.429Z" fill="white"/>
<path d="M109.352 259.682L100.055 265.069L96.9731 263.273L106.27 257.938L109.352 259.682Z" fill="white"/>
<path d="M132.773 246.19L113.461 257.322L110.43 255.527L129.691 244.395L132.773 246.19Z" fill="white"/>
<path d="M158.917 231.108L136.882 243.83L133.8 242.035L155.835 229.312L158.917 231.108Z" fill="white"/>
<path d="M159.995 226.952L163.077 228.697L185.112 216.026L182.03 214.23L159.995 226.952Z" fill="white"/>
<path d="M198.415 208.331L189.221 213.615L186.139 211.87L195.333 206.586L198.415 208.331Z" fill="white"/>
<path d="M224.866 193.094L202.524 205.971L199.442 204.175L221.785 191.299L224.866 193.094Z" fill="white"/>
<path d="M112.177 267.685L89.9878 280.459L86.906 278.714L109.095 265.889L112.177 267.685Z" fill="white"/>
<path d="M125.634 259.939L116.337 265.274L113.255 263.53L122.552 258.143L125.634 259.939Z" fill="white"/>
<path d="M141.094 251.012L129.743 257.527L126.661 255.783L138.012 249.217L141.094 251.012Z" fill="white"/>
<path d="M157.838 241.317L145.254 248.601L142.172 246.857L154.808 239.573L157.838 241.317Z" fill="white"/>
<path d="M158.917 237.161L161.999 238.957L182.287 227.26L179.256 225.465L158.917 237.161Z" fill="white"/>
<path d="M200.11 217L186.447 224.849L183.365 223.105L197.028 215.205L200.11 217Z" fill="white"/>
<path d="M233.187 197.917L204.219 214.589L201.137 212.845L230.106 196.121L233.187 197.917Z" fill="white"/>
</g>
<path d="M171.706 47.4015C170.935 46.2729 168.675 47.6067 167.956 49.6587C163.693 61.8169 161.228 114.246 154.961 128.61C154.448 129.79 153.215 130.559 152.599 130.149C149.312 127.789 145.151 112.553 142.121 100.959C141.71 99.4714 138.679 101.318 138.371 103.216C136.522 114.861 130.667 139.434 127.996 140.973C122.243 144.308 115.72 71.5127 112.536 64.9975C111.919 63.715 109.505 65.2027 108.786 67.2547C106.629 73.4108 101.236 139.742 94.3534 143.692C89.628 146.411 85.2622 119.427 82.8995 112.553C82.3858 111.117 79.5095 112.861 79.15 114.81C74.9382 136.972 71.4969 177.91 66.7715 179.756C63.998 182.065 61.4298 161.032 60.9676 158.005C58.9644 144.821 56.9613 121.223 53.3145 115.734C52.5441 114.554 50.2841 115.939 49.565 117.991C47.4078 124.147 46.586 137.023 41.501 174.37C40.0115 185.143 39.4465 193.3 36.6216 197.711V252.654L185.163 166.983V125.994C182.389 128.302 175.301 52.8394 171.706 47.4015Z" fill="#E64514"/>
<g style="mix-blend-mode:screen">
<path d="M36.6729 85.6715V86.1845L185.214 0.513003V0L36.6729 85.6715Z" fill="#FFDDFF"/>
<path d="M36.6729 100.138L185.214 14.4666V13.9536L36.6729 99.6251V100.138Z" fill="#FFDDFF"/>
<path d="M36.6729 238.341V238.854L185.214 153.234V152.721L36.6729 238.341Z" fill="#FFDDFF"/>
<path d="M36.6729 252.859L185.214 167.188V166.675L36.6729 252.295V252.859Z" fill="#FFDDFF"/>
<path d="M36.6729 114.092L185.214 28.4205V27.9075L36.6729 113.579V114.092Z" fill="#FFDDFF"/>
<path d="M36.6729 128.046L185.214 42.3741V41.8611L36.6729 127.533V128.046Z" fill="#FFDDFF"/>
<path d="M36.6729 141.999L185.214 56.3277V55.8147L36.6729 141.486V141.999Z" fill="#FFDDFF"/>
<path d="M36.6729 155.953L185.214 70.2816V69.7686L36.6729 155.44V155.953Z" fill="#FFDDFF"/>
<path d="M36.6729 169.907L185.214 84.2865V83.7222L36.6729 169.394V169.907Z" fill="#FFDDFF"/>
<path d="M36.6729 183.86L185.214 98.2401V97.7271L36.6729 183.347V183.86Z" fill="#FFDDFF"/>
<path d="M36.6729 197.814L185.214 112.194V111.681L36.6729 197.301V197.814Z" fill="#FFDDFF"/>
<path d="M36.6729 211.819L185.214 126.148V125.635L36.6729 211.306V211.819Z" fill="#FFDDFF"/>
<path d="M36.6729 225.773L185.214 140.101V139.588L36.6729 225.26V225.773Z" fill="#FFDDFF"/>
<path d="M117.878 81.0031C117.878 82.0804 117.004 83.4142 115.977 84.0298C114.95 84.6454 114.077 84.2863 114.077 83.209C114.077 82.1317 114.95 80.7979 115.977 80.1823C117.004 79.5667 117.878 79.9258 117.878 81.0031Z" fill="#FFDDFF"/>
<path d="M80.588 116.657C80.588 117.734 79.7148 119.068 78.6875 119.684C77.6089 120.299 76.7871 119.94 76.7871 118.863C76.7871 117.786 77.6603 116.452 78.6875 115.836C79.7662 115.221 80.588 115.58 80.588 116.657Z" fill="#FFDDFF"/>
<path d="M56.0367 116.708C56.0367 117.785 55.1635 119.119 54.1363 119.735C53.0576 120.351 52.2358 119.991 52.2358 118.914C52.2358 117.837 53.109 116.503 54.1363 115.887C55.2149 115.272 56.0367 115.631 56.0367 116.708Z" fill="#FFDDFF"/>
<path d="M145.767 107.012C145.767 108.09 144.894 109.424 143.867 110.039C142.788 110.655 141.967 110.296 141.967 109.218C141.967 108.141 142.84 106.807 143.867 106.192C144.946 105.576 145.767 105.935 145.767 107.012Z" fill="#FFDDFF"/>
<path d="M174.325 48.4787C174.325 49.556 173.452 50.8898 172.425 51.5054C171.346 52.121 170.524 51.7619 170.524 50.6846C170.524 49.6073 171.398 48.2735 172.425 47.6579C173.503 47.0423 174.325 47.4014 174.325 48.4787Z" fill="#FFDDFF"/>
</g>
<path d="M198.928 290.514L184.649 298.773L181.568 297.029L195.847 288.77L198.928 290.514Z" fill="white"/>
<path d="M212.334 282.819L203.037 288.154L200.007 286.358L209.304 281.023L212.334 282.819Z" fill="white"/>
<path d="M235.755 269.275L216.494 280.408L213.413 278.663L232.674 267.531L235.755 269.275Z" fill="white"/>
<path d="M261.95 254.193L239.916 266.915L236.834 265.12L258.869 252.449L261.95 254.193Z" fill="white"/>
<path d="M262.978 250.038L266.06 251.833L288.094 239.111L285.012 237.366L262.978 250.038Z" fill="white"/>
<path d="M301.397 231.467L292.203 236.751L289.173 234.955L298.315 229.671L301.397 231.467Z" fill="white"/>
<path d="M327.849 216.18L305.557 229.056L302.476 227.312L324.767 214.435L327.849 216.18Z" fill="white"/>
<path d="M215.21 290.77L192.97 303.595L189.888 301.8L212.129 289.026L215.21 290.77Z" fill="white"/>
<path d="M228.616 283.024L219.319 288.41L216.238 286.615L225.534 281.28L228.616 283.024Z" fill="white"/>
<path d="M244.128 274.097L232.725 280.664L229.695 278.868L241.046 272.353L244.128 274.097Z" fill="white"/>
<path d="M260.872 264.453L248.237 271.738L245.155 269.942L257.79 262.658L260.872 264.453Z" fill="white"/>
<path d="M261.899 260.298L264.981 262.042L285.321 250.346L282.239 248.601L261.899 260.298Z" fill="white"/>
<path d="M303.092 240.086L289.429 247.986L286.348 246.19L300.01 238.341L303.092 240.086Z" fill="white"/>
<path d="M336.221 221.002L307.201 237.726L304.171 235.93L333.139 219.206L336.221 221.002Z" fill="white"/>
<path d="M215.621 300.158L201.342 308.417L198.26 306.622L212.539 298.414L215.621 300.158Z" fill="white"/>
<path d="M229.027 292.412L219.73 297.798L216.7 296.003L225.996 290.667L229.027 292.412Z" fill="white"/>
<path d="M252.448 278.92L233.187 290.052L230.105 288.256L249.367 277.124L252.448 278.92Z" fill="white"/>
<path d="M278.643 263.837L256.609 276.56L253.527 274.764L275.562 262.042L278.643 263.837Z" fill="white"/>
<path d="M279.671 259.682L282.752 261.426L304.787 248.755L301.705 246.96L279.671 259.682Z" fill="white"/>
<path d="M318.09 241.06L308.896 246.344L305.814 244.6L315.008 239.316L318.09 241.06Z" fill="white"/>
<path d="M344.542 225.824L322.25 238.7L319.169 236.905L341.46 224.029L344.542 225.824Z" fill="white"/>
<path d="M231.903 300.415L209.663 313.188L206.581 311.444L228.821 298.619L231.903 300.415Z" fill="white"/>
<path d="M245.309 292.668L236.012 298.004L232.93 296.259L242.227 290.873L245.309 292.668Z" fill="white"/>
<path d="M260.82 283.742L249.418 290.308L246.387 288.513L257.739 281.947L260.82 283.742Z" fill="white"/>
<path d="M277.565 274.046L264.929 281.331L261.848 279.587L274.483 272.302L277.565 274.046Z" fill="white"/>
<path d="M278.592 269.891L281.674 271.687L302.013 259.99L298.932 258.195L278.592 269.891Z" fill="white"/>
<path d="M319.785 249.73L306.123 257.579L303.041 255.835L316.703 247.934L319.785 249.73Z" fill="white"/>
<path d="M352.914 230.646L323.894 247.319L320.864 245.574L349.832 228.851L352.914 230.646Z" fill="white"/>
<path d="M95.9458 231.159L81.6156 239.367L78.5852 237.623L92.8641 229.364L95.9458 231.159Z" fill="white"/>
<path d="M109.352 223.413L100.055 228.748L96.9731 227.004L106.27 221.617L109.352 223.413Z" fill="white"/>
<path d="M132.773 209.921L113.461 221.002L110.43 219.258L129.691 208.125L132.773 209.921Z" fill="white"/>
<path d="M158.917 194.787L136.882 207.51L133.8 205.765L155.835 193.043L158.917 194.787Z" fill="white"/>
<path d="M159.995 190.632L163.077 192.427L185.112 179.705L182.03 177.961L159.995 190.632Z" fill="white"/>
<path d="M198.415 172.061L189.221 177.345L186.139 175.55L195.333 170.266L198.415 172.061Z" fill="white"/>
<path d="M224.866 156.774L202.524 169.65L199.442 167.906L221.785 155.03L224.866 156.774Z" fill="white"/>
<path d="M112.177 231.364L89.9878 244.189L86.906 242.394L109.095 229.62L112.177 231.364Z" fill="white"/>
<path d="M125.634 223.669L116.337 229.005L113.255 227.209L122.552 221.874L125.634 223.669Z" fill="white"/>
<path d="M141.094 214.692L129.743 221.258L126.661 219.514L138.012 212.948L141.094 214.692Z" fill="white"/>
<path d="M157.838 205.047L145.254 212.332L142.172 210.537L154.808 203.303L157.838 205.047Z" fill="white"/>
<path d="M158.917 200.892L161.999 202.688L182.287 190.94L179.256 189.196L158.917 200.892Z" fill="white"/>
<path d="M200.11 180.68L186.447 188.58L183.365 186.784L197.028 178.936L200.11 180.68Z" fill="white"/>
<path d="M233.187 161.596L204.219 178.32L201.137 176.524L230.106 159.852L233.187 161.596Z" fill="white"/>
<path d="M167.597 251.936L122.86 247.832C124.401 242.138 128.51 237.52 135.546 233.468L167.597 251.936Z" fill="white"/>
<path d="M167.597 251.936L147.052 275.226C129.229 269.994 119.727 259.272 122.86 247.883L167.597 251.987V251.936Z" fill="white"/>
<path d="M167.597 251.936L199.647 270.404C185.522 278.561 164.875 280.459 147.052 275.226L167.597 251.936Z" fill="white"/>
<path d="M167.597 251.936L212.334 247.832C214.697 256.399 210.228 264.248 199.647 270.404L167.597 251.936Z" fill="#979696"/>
<path d="M167.597 251.936L188.142 228.646C201.496 232.596 209.971 239.265 212.334 247.832L167.597 251.936Z" fill="#E64514"/>
<path d="M167.597 251.936L135.547 233.468C149.671 225.311 170.319 223.413 188.142 228.646L167.597 251.936Z" fill="#E64514"/>
<path d="M246.439 206.381L261.694 231.108C252.192 233.057 243.203 233.211 233.547 231.57L246.439 206.381Z" fill="white"/>
<path d="M246.439 206.381L290.097 213.82C285.834 222.182 275.87 228.235 261.694 231.108L246.439 206.381Z" fill="white"/>
<path d="M246.439 206.381L233.547 231.57C209.458 227.466 195.641 212.845 202.78 198.943C209.92 185.04 235.242 177.089 259.331 181.193C268.987 182.834 276.383 185.758 282.547 190.375L246.439 206.381Z" fill="#E64514"/>
<path d="M246.439 206.381L282.547 190.375C291.741 197.25 294.412 205.458 290.097 213.82L246.439 206.381Z" fill="#979696"/>
<path d="M362.93 192.274V293.387C362.93 295.849 364.522 298.311 367.758 300.21C374.229 303.954 384.707 303.954 391.128 300.21C394.312 298.363 395.956 295.952 395.956 293.541V192.428L362.878 192.274H362.93Z" fill="#E64514"/>
<path d="M362.93 192.274V293.387C362.93 295.849 364.522 298.311 367.758 300.21C374.229 303.954 384.707 303.954 391.128 300.21C394.312 298.363 395.956 295.952 395.956 293.541V192.428L362.878 192.274H362.93Z" fill="url(#paint4_linear_2256_2470)"/>
<path d="M391.076 185.502C388.508 184.014 385.581 183.142 381.985 182.834C374.794 182.168 368.015 184.168 364.779 187.913C361.491 191.658 362.724 196.019 367.86 198.994C371.713 201.251 376.695 202.175 382.088 201.662C387.481 201.149 391.693 199.404 394.158 196.583C397.445 192.838 396.213 188.477 391.076 185.502Z" fill="#E64514"/>
<path d="M332.831 223.926V310.777C332.831 313.24 334.423 315.702 337.659 317.6C344.131 321.345 354.609 321.345 361.029 317.6C364.214 315.754 365.857 313.342 365.857 310.931V224.08L332.78 223.926H332.831Z" fill="#979696"/>
<path d="M332.831 223.926V310.777C332.831 313.24 334.423 315.702 337.659 317.6C344.131 321.345 354.609 321.345 361.029 317.6C364.214 315.754 365.857 313.342 365.857 310.931V224.08L332.78 223.926H332.831Z" fill="url(#paint5_linear_2256_2470)"/>
<path d="M360.978 217.154C358.41 215.667 355.482 214.795 351.887 214.487C344.696 213.82 337.916 215.821 334.68 219.565C331.393 223.31 332.626 227.671 337.762 230.646C341.614 232.904 346.596 233.827 351.989 233.314C357.382 232.801 361.594 231.057 364.06 228.235C367.347 224.49 366.114 220.13 360.978 217.154Z" fill="#979696"/>
<path d="M302.681 255.065V328.168C302.681 330.631 304.273 333.093 307.509 334.991C313.981 338.736 324.459 338.736 330.879 334.991C334.064 333.144 335.707 330.733 335.707 328.322V255.219L302.63 255.065H302.681Z" fill="#E64514"/>
<path d="M302.681 255.065V328.168C302.681 330.631 304.273 333.093 307.509 334.991C313.981 338.736 324.459 338.736 330.879 334.991C334.064 333.144 335.707 330.733 335.707 328.322V255.219L302.63 255.065H302.681Z" fill="url(#paint6_linear_2256_2470)"/>
<path d="M330.879 248.294C328.311 246.806 325.383 245.934 321.788 245.626C314.597 244.959 307.817 246.96 304.581 250.705C301.294 254.45 302.527 258.81 307.663 261.786C311.515 264.043 316.498 264.966 321.891 264.453C327.284 263.94 331.495 262.196 333.961 259.374C337.248 255.629 336.015 251.269 330.879 248.294Z" fill="#E64514"/>
<path d="M272.12 291.181V345.764C272.12 348.227 273.712 350.689 276.948 352.587C283.42 356.332 293.898 356.332 300.318 352.587C303.503 350.74 305.146 348.329 305.146 345.918V291.335L272.069 291.181H272.12Z" fill="#979696"/>
<path d="M272.12 291.181V345.764C272.12 348.227 273.712 350.689 276.948 352.587C283.42 356.332 293.898 356.332 300.318 352.587C303.503 350.74 305.146 348.329 305.146 345.918V291.335L272.069 291.181H272.12Z" fill="url(#paint7_linear_2256_2470)"/>
<path d="M300.267 284.409C297.699 282.921 294.771 282.049 291.176 281.741C283.985 281.075 277.205 283.075 273.969 286.82C270.682 290.565 271.915 294.926 277.051 297.901C280.903 300.158 285.885 301.082 291.278 300.569C296.671 300.056 300.883 298.311 303.349 295.49C306.636 291.745 305.403 287.384 300.267 284.409Z" fill="#979696"/>
<path d="M241.559 325.295V363.412C241.559 365.874 243.151 368.336 246.387 370.234C252.859 373.979 263.337 373.979 269.757 370.234C272.942 368.388 274.585 365.977 274.585 363.565V325.449L241.508 325.295H241.559Z" fill="#979696"/>
<path d="M241.559 325.295V363.412C241.559 365.874 243.151 368.336 246.387 370.234C252.859 373.979 263.337 373.979 269.757 370.234C272.942 368.388 274.585 365.977 274.585 363.565V325.449L241.508 325.295H241.559Z" fill="url(#paint8_linear_2256_2470)"/>
<path d="M269.706 318.524C267.138 317.036 264.21 316.164 260.615 315.856C253.424 315.189 246.644 317.19 243.408 320.935C240.121 324.68 241.354 329.04 246.49 332.016C250.342 334.273 255.324 335.196 260.718 334.683C266.111 334.17 270.322 332.426 272.788 329.605C276.075 325.86 274.842 321.499 269.706 318.524Z" fill="#979696"/>
</g>
<defs>
<linearGradient id="paint0_linear_2256_2470" x1="332.831" y1="357.871" x2="365.909" y2="357.871" gradientUnits="userSpaceOnUse">
<stop/>
<stop offset="1" stop-opacity="0"/>
</linearGradient>
<linearGradient id="paint1_linear_2256_2470" x1="302.681" y1="366.643" x2="335.759" y2="366.643" gradientUnits="userSpaceOnUse">
<stop/>
<stop offset="1" stop-opacity="0"/>
</linearGradient>
<linearGradient id="paint2_linear_2256_2470" x1="272.12" y1="375.878" x2="305.198" y2="375.878" gradientUnits="userSpaceOnUse">
<stop/>
<stop offset="1" stop-opacity="0"/>
</linearGradient>
<linearGradient id="paint3_linear_2256_2470" x1="241.559" y1="386.753" x2="274.637" y2="386.753" gradientUnits="userSpaceOnUse">
<stop/>
<stop offset="1" stop-opacity="0"/>
</linearGradient>
<linearGradient id="paint4_linear_2256_2470" x1="293.076" y1="247.678" x2="385.17" y2="247.678" gradientUnits="userSpaceOnUse">
<stop/>
<stop offset="1" stop-opacity="0"/>
</linearGradient>
<linearGradient id="paint5_linear_2256_2470" x1="285.012" y1="272.148" x2="358.923" y2="272.148" gradientUnits="userSpaceOnUse">
<stop/>
<stop offset="1" stop-opacity="0"/>
</linearGradient>
<linearGradient id="paint6_linear_2256_2470" x1="258.509" y1="296.413" x2="328.414" y2="296.413" gradientUnits="userSpaceOnUse">
<stop/>
<stop offset="1" stop-opacity="0"/>
</linearGradient>
<linearGradient id="paint7_linear_2256_2470" x1="234.676" y1="323.295" x2="296.158" y2="323.295" gradientUnits="userSpaceOnUse">
<stop/>
<stop offset="1" stop-opacity="0"/>
</linearGradient>
<linearGradient id="paint8_linear_2256_2470" x1="204.013" y1="349.15" x2="264.056" y2="349.15" gradientUnits="userSpaceOnUse">
<stop/>
<stop offset="1" stop-opacity="0"/>
</linearGradient>
<clipPath id="clip0_2256_2470">
<rect width="424" height="432" fill="white"/>
</clipPath>
</defs>
</svg>
