<svg width="40" height="40" viewBox="0 0 40 40" fill="none" xmlns="http://www.w3.org/2000/svg">
<circle cx="20" cy="20" r="19.25" stroke="white" stroke-width="1.5"/>
<path d="M28.5 18.1111V13.3889C28.5 12.3453 27.6547 11.5 26.6111 11.5H13.3889C12.3453 11.5 11.5 12.3453 11.5 13.3889V25.6667C11.5 26.7103 12.3453 27.5556 13.3889 27.5556H17.1667" stroke="white" stroke-width="1.5" stroke-linecap="round" stroke-linejoin="round"/>
<path d="M28.5 28.5L26.63 26.63" stroke="white" stroke-width="1.5" stroke-linecap="round" stroke-linejoin="round"/>
<path d="M23.621 19.371C25.9679 19.371 27.871 21.274 27.871 23.621C27.871 25.9679 25.9679 27.871 23.621 27.871C21.2741 27.871 19.371 25.9679 19.371 23.621C19.371 21.274 21.2741 19.371 23.621 19.371" stroke="white" stroke-width="1.5" stroke-linecap="round" stroke-linejoin="round"/>
<path d="M25.2738 22.7946L23.2073 24.861L21.9673 23.6209" stroke="white" stroke-width="1.5" stroke-linecap="round" stroke-linejoin="round"/>
</svg>
