<?xml version="1.0" encoding="UTF-8"?>
<svg id="Layer_1" xmlns="http://www.w3.org/2000/svg" viewBox="0 0 1156.61 727.05">
  <defs>
    <style>
      .cls-1 {
        fill: #e64514;
      }
    </style>
  </defs>
  <path class="cls-1" d="M1047.63,304.89c11.67,0,20.26,8.98,20.26,20.43s-8.47,20.37-20.15,20.37-20.09-8.87-20.09-20.37,8.59-20.43,19.98-20.43ZM1047.75,340.36c8.47,0,14.65-6.34,14.65-15.04s-6.23-15.1-14.76-15.1-14.48,6.51-14.48,15.1,6.29,15.04,14.59,15.04ZM1058.3,328.52c-.45,3.98-4.49,7.69-10.05,7.69-6.06,0-10.89-4.77-10.89-10.89s4.55-10.78,10.89-10.78c5.11,0,8.87,3.31,9.71,7.07l-4.77,1.74c-.39-1.85-2.25-3.65-4.94-3.65-2.97,0-5.39,2.25-5.39,5.61,0,3.54,2.53,5.72,5.39,5.72s4.49-1.29,5.28-3.82l4.77,1.29Z"/>
  <path class="cls-1" d="M244.2,143.03h136.11v42.85h-57.47c-31.59,0-56.8,6.47-75.61,19.41-18.83,12.94-28.23,32.01-28.23,57.21s7.89,44.11,23.69,59.74c15.79,15.63,38.48,23.44,68.05,23.44,18.15,0,33.27-2.69,45.37-8.06,12.1-5.37,20.16-11.76,24.2-19.16h1.51l4.64,24.72h41.24V95.14h-183.49v47.89ZM380.31,253.93c0,9.75-2.77,18.15-8.32,25.21-5.55,7.06-12.35,12.52-20.42,16.38-8.07,3.87-15.21,6.05-21.42,6.55-6.22.5-10.51.76-12.85.76-6.73,0-13.61-1.01-20.67-3.02-7.06-2.02-13.36-5.88-18.9-11.59-5.54-5.71-8.32-12.93-8.32-21.68,0-4.36,1.09-8.82,3.28-13.36,2.18-4.54,5.71-8.57,10.59-12.1,4.87-3.53,11.17-6.47,18.9-8.82,7.73-2.35,16.97-3.53,27.73-3.53h50.41v25.2ZM170.99,213.62c-10.42-5.71-21.68-10.16-33.77-13.36-12.1-3.19-23.44-6.22-34.03-9.07-10.59-2.85-19.41-6.13-26.46-9.83-7.06-3.69-10.92-8.74-11.59-15.12v-2.02c0-2.35.42-5.12,1.26-8.32.84-3.19,2.69-6.47,5.55-9.83,2.85-3.36,6.81-6.05,11.85-8.07,5.04-2.02,11.09-3.02,18.15-3.02h3.53c7.73.34,14.19,1.51,19.41,3.53,5.21,2.02,9.4,4.54,12.6,7.56,3.19,3.02,5.62,6.47,7.31,10.33,1.68,3.87,2.85,7.81,3.53,11.85h50.41c0-12.77-2.61-23.94-7.81-33.52-5.21-9.58-12.18-17.47-20.92-23.69-8.74-6.22-18.83-10.84-30.25-13.86-11.43-3.02-23.36-4.54-35.79-4.54-15.12,0-28.06,2.02-38.82,6.05-10.76,4.03-19.58,9.41-26.46,16.13-6.89,6.73-11.93,14.29-15.12,22.69-3.2,8.41-4.79,17.14-4.79,26.21,0,15.46,3.61,27.56,10.84,36.29,7.22,8.74,16.21,15.46,26.97,20.16,10.75,4.71,22.35,8.15,34.78,10.33,12.43,2.19,23.95,4.88,34.53,8.07,10.59,3.2,19.07,7.4,25.46,12.6,6.38,5.21,9.58,12.52,9.58,21.93v3.03c0,.68-.34,2.44-1.01,5.29-.68,2.86-2.52,5.97-5.54,9.33-3.02,3.36-7.65,6.3-13.86,8.82-6.22,2.52-14.87,3.78-25.96,3.78-9.07,0-16.81-1.17-23.19-3.53-6.39-2.35-11.68-5.55-15.88-9.58-4.21-4.03-7.4-8.57-9.58-13.61-.71-1.64-1.34-3.29-1.93-4.93H10.62c1.65,8.24,4.42,16.03,8.38,23.33,5.55,10.25,12.85,19.16,21.93,26.72,9.07,7.56,19.57,13.45,31.51,17.64,11.92,4.2,24.78,6.3,38.56,6.3,17.14,0,31.84-2.19,44.11-6.55,12.26-4.36,22.26-9.99,29.99-16.89,7.73-6.88,13.36-14.7,16.89-23.44,3.53-8.73,5.29-17.64,5.29-26.72,0-14.78-3.45-26.8-10.33-36.04-6.89-9.24-15.55-16.71-25.96-22.43ZM510.62,12.21h-71.08v47.39h23.69v283.57h71.08v-47.39h-23.69V12.21ZM972.9,236.05c-6.89-9.24-15.55-16.71-25.96-22.43-10.42-5.71-21.68-10.16-33.77-13.36-12.1-3.19-23.44-6.22-34.03-9.07-10.59-2.85-19.41-6.13-26.46-9.83-7.06-3.69-10.92-8.74-11.59-15.12v-2.02c0-2.35.42-5.12,1.26-8.32.84-3.19,2.69-6.47,5.55-9.83,2.85-3.36,6.81-6.05,11.85-8.07,5.04-2.02,11.09-3.02,18.15-3.02h3.53c7.73.34,14.19,1.51,19.41,3.53,5.21,2.02,9.4,4.54,12.6,7.56,3.19,3.02,5.62,6.47,7.31,10.33,1.68,3.87,2.85,7.81,3.53,11.85h50.41c0-12.77-2.61-23.94-7.81-33.52-5.21-9.58-12.18-17.47-20.92-23.69-8.74-6.22-18.82-10.84-30.25-13.86-11.43-3.02-23.36-4.54-35.79-4.54-15.12,0-28.06,2.02-38.82,6.05-10.76,4.03-19.58,9.41-26.46,16.13-6.89,6.73-11.93,14.29-15.12,22.69-3.2,8.41-4.79,17.14-4.79,26.21,0,15.46,3.61,27.56,10.84,36.29,7.22,8.74,16.21,15.46,26.97,20.16,10.75,4.71,22.35,8.15,34.78,10.33,12.43,2.19,23.95,4.88,34.53,8.07,10.59,3.2,19.07,7.4,25.46,12.6,6.38,5.21,9.58,12.52,9.58,21.93v3.03c0,.68-.34,2.44-1.01,5.29-.68,2.86-2.52,5.97-5.54,9.33-3.03,3.36-7.65,6.3-13.86,8.82-6.22,2.52-14.87,3.78-25.96,3.78-9.07,0-16.81-1.17-23.19-3.53-6.39-2.35-11.68-5.55-15.88-9.58-4.21-4.03-7.4-8.57-9.58-13.61-.71-1.64-1.34-3.29-1.93-4.93h-53.33c1.65,8.24,4.42,16.03,8.38,23.33,5.55,10.25,12.85,19.16,21.93,26.72,9.07,7.56,19.57,13.45,31.51,17.64,11.92,4.2,24.78,6.3,38.56,6.3,17.14,0,31.84-2.19,44.11-6.55,12.26-4.36,22.26-9.99,29.99-16.89,7.73-6.88,13.36-14.7,16.89-23.44,3.53-8.73,5.29-17.64,5.29-26.72,0-14.78-3.45-26.8-10.33-36.04ZM754.92,135.23c-9.36-13.43-21.77-23.89-37.24-31.37-15.48-7.48-34.27-11.22-56.37-11.22-20.41,0-38.1,3.15-53.06,9.44-14.97,6.3-27.38,15.05-37.24,26.27-9.87,11.22-17.27,24.58-22.19,40.05-4.93,15.48-7.4,32.39-7.4,50.76,0,41.5,9.44,72.95,28.31,94.38,18.88,21.43,48.89,32.14,90.04,32.14,13.6,0,26.44-1.36,38.52-4.08,12.07-2.72,22.96-6.97,32.65-12.75,9.69-5.78,18.02-13.34,25-22.7,6.97-9.35,12.16-20.83,15.56-34.44h-48.98c-1.71,6.46-4.85,11.57-9.44,15.3-4.59,3.75-9.78,6.55-15.56,8.42-5.79,1.87-12.08,3.06-18.88,3.57-6.81.51-13.44.76-19.9.76-9.18,0-17.86-.76-26.02-2.3-8.16-1.53-15.48-4.33-21.94-8.42-6.47-4.08-11.57-9.86-15.31-17.35-3.75-7.48-5.61-17.17-5.61-29.08h187.23c.68-6.8,1.02-13.6,1.02-20.41,0-13.6-1.53-28.14-4.59-43.62-3.06-15.47-9.27-29.93-18.62-43.36ZM589.88,197.73c0-6.12,1.1-12.75,3.32-19.9,2.21-7.14,6.12-13.77,11.73-19.9,5.61-6.12,13.01-11.22,22.19-15.3,9.18-4.08,20.74-6.12,34.69-6.12,15.31,0,27.37,2.38,36.22,7.14,8.84,4.77,15.56,10.46,20.15,17.09,4.59,6.63,7.57,13.44,8.93,20.41,1.35,6.98,2.21,12.5,2.55,16.58h-139.78Z"/>
  <g>
    <path class="cls-1" d="M652.53,388.05c22.1,0,40.89,3.75,56.37,11.22,15.47,7.48,27.88,17.94,37.24,31.37,9.35,13.44,15.56,27.89,18.62,43.36,3.06,15.48,4.59,30.02,4.59,43.62,0,6.81-.34,13.61-1.02,20.41h-187.23c0,11.91,1.87,21.6,5.61,29.08,3.74,7.48,8.84,13.26,15.31,17.35,6.46,4.08,13.77,6.89,21.94,8.42,8.16,1.53,16.84,2.3,26.02,2.3,6.46,0,13.09-.25,19.9-.76,6.8-.51,13.09-1.7,18.88-3.57,5.78-1.87,10.97-4.67,15.56-8.42,4.59-3.74,7.73-8.84,9.44-15.3h48.98c-3.4,13.61-8.59,25.08-15.56,34.44-6.98,9.36-15.31,16.92-25,22.7-9.69,5.79-20.58,10.04-32.65,12.75-12.08,2.72-24.92,4.08-38.52,4.08-41.16,0-71.17-10.71-90.04-32.14-18.88-21.43-28.31-52.88-28.31-94.38,0-18.37,2.46-35.28,7.4-50.76,4.93-15.47,12.32-28.82,22.19-40.05,9.86-11.22,22.27-19.98,37.24-26.27,14.96-6.29,32.65-9.44,53.06-9.44ZM720.89,493.15c-.34-4.08-1.2-9.61-2.55-16.58-1.36-6.97-4.34-13.77-8.93-20.41-4.59-6.63-11.31-12.32-20.15-17.09-8.85-4.76-20.92-7.14-36.22-7.14-13.95,0-25.51,2.04-34.69,6.12-9.18,4.08-16.58,9.18-22.19,15.3-5.61,6.12-9.53,12.76-11.73,19.9-2.22,7.14-3.32,13.77-3.32,19.9h139.78Z"/>
    <path class="cls-1" d="M322.99,390.56v25.73h1.51c5.37-8.4,14.79-15.12,28.23-20.16,13.44-5.04,28.74-8.06,45.87-8.06,13.44,0,27.13,1.76,41.08,4.29,13.94,2.52,26.54,8.15,37.81,16.89,11.26,8.74,20.5,21.35,27.73,37.81,7.22,16.47,10.84,38.65,10.84,66.54s-3.53,51.65-10.59,68.29c-7.06,16.64-16.3,29.33-27.73,38.06-11.43,8.74-24.03,14.45-37.81,17.14-13.78,2.69-27.56,4.03-41.34,4.03-16.13,0-31-2.52-44.61-7.56-13.61-5.04-22.94-11.42-27.98-19.16h-1.01v107.14h-47.39s0-330.96,0-330.96h45.37ZM396.58,593.2c11.42,0,21.34-.92,29.74-2.77,8.4-1.84,15.29-5.55,20.67-11.09,5.37-5.54,9.4-13.27,12.1-23.19,2.69-9.91,4.03-25.1,4.03-41.57,0-18.48-1.6-33.02-4.79-43.61-3.2-10.59-7.81-18.48-13.86-23.69-6.05-5.21-13.36-8.48-21.93-9.83-8.57-1.34-18.23-2.02-28.99-2.02s-20.42.84-28.99,2.52c-8.57,1.69-15.88,5.29-21.93,10.84-6.05,5.54-10.67,13.53-13.86,23.94-3.2,10.42-4.79,24.37-4.79,41.84,0,15.46,1.34,30.23,4.03,40.31,2.69,10.08,6.97,17.89,12.85,23.44,5.88,5.54,13.36,9.41,22.43,11.59,9.07,2.19,20.16,3.28,33.27,3.28Z"/>
    <path class="cls-1" d="M950.33,390.56v47.39h-109.89v200.4h-47.39v-247.78h157.28Z"/>
    <path class="cls-1" d="M1135.77,531.47c-6.89-9.24-15.55-16.71-25.96-22.43-10.42-5.71-21.68-10.16-33.78-13.36-12.1-3.19-23.44-6.22-34.03-9.07-10.59-2.85-19.41-6.13-26.46-9.83-7.06-3.69-10.92-8.74-11.59-15.12v-2.02c0-2.35.42-5.12,1.26-8.32.84-3.19,2.69-6.47,5.55-9.83,2.85-3.36,6.81-6.05,11.85-8.07,5.04-2.02,11.09-3.02,18.15-3.02h3.53c7.73.34,14.19,1.51,19.41,3.53,5.21,2.02,9.4,4.54,12.6,7.56,3.19,3.02,5.62,6.47,7.31,10.33,1.68,3.87,2.85,7.81,3.53,11.85h50.41c0-12.77-2.61-23.94-7.81-33.52-5.21-9.58-12.18-17.47-20.92-23.69-8.74-6.22-18.83-10.84-30.25-13.86-11.43-3.02-23.36-4.54-35.79-4.54-15.12,0-28.06,2.02-38.82,6.05-10.76,4.03-19.58,9.41-26.46,16.13-6.89,6.73-11.93,14.29-15.12,22.69-3.2,8.41-4.79,17.14-4.79,26.21,0,15.46,3.61,27.56,10.84,36.29,7.22,8.74,16.21,15.46,26.97,20.16,10.75,4.71,22.35,8.15,34.78,10.33,12.43,2.19,23.95,4.88,34.53,8.07,10.59,3.2,19.07,7.4,25.46,12.6,6.38,5.21,9.58,12.52,9.58,21.93v3.03c0,.68-.34,2.44-1.01,5.29-.68,2.86-2.52,5.97-5.54,9.33-3.03,3.36-7.65,6.3-13.86,8.82-6.22,2.52-14.87,3.78-25.96,3.78-9.07,0-16.81-1.17-23.19-3.53-6.39-2.35-11.68-5.55-15.88-9.58-4.21-4.03-7.4-8.57-9.58-13.61-.71-1.64-1.34-3.29-1.93-4.93h-53.33c1.65,8.24,4.42,16.03,8.38,23.33,5.55,10.25,12.85,19.16,21.93,26.72,9.07,7.56,19.57,13.45,31.51,17.64,11.92,4.2,24.78,6.3,38.56,6.3,17.14,0,31.84-2.19,44.11-6.55,12.26-4.36,22.26-9.99,29.99-16.89,7.73-6.88,13.36-14.7,16.89-23.44,3.53-8.73,5.29-17.64,5.29-26.72,0-14.78-3.45-26.8-10.33-36.04Z"/>
    <path class="cls-1" d="M128.7,388.14c13.91,0,27.82,1.36,41.73,4.07,13.91,2.72,26.54,8.4,37.92,17.05,11.36,8.65,20.61,21.3,27.74,37.92,7.12,16.63,10.69,39.02,10.69,67.18s-3.56,50.56-10.69,67.18c-7.12,16.63-16.37,29.35-27.74,38.17-11.37,8.83-24.01,14.59-37.92,17.31-13.92,2.72-27.82,4.07-41.73,4.07s-27.4-1.35-41.48-4.07c-14.08-2.71-26.81-8.48-38.17-17.31-11.37-8.82-20.61-21.54-27.74-38.17-7.12-16.62-10.69-39.01-10.69-67.18s3.56-50.55,10.69-67.18c7.13-16.62,16.37-29.26,27.74-37.92,11.36-8.65,24.09-14.33,38.17-17.05,14.07-2.71,27.9-4.07,41.48-4.07ZM128.7,593.25c10.85,0,20.61-.68,29.26-2.04,8.65-1.35,15.95-4.66,21.89-9.92,5.93-5.26,10.51-13.31,13.74-24.18,3.22-10.86,4.83-25.62,4.83-44.28,0-16.62-1.36-29.94-4.07-39.95-2.72-10.01-6.87-17.72-12.47-23.16-5.6-5.43-12.81-9.07-21.63-10.94-8.83-1.86-19.34-2.8-31.55-2.8s-22.82.94-31.81,2.8c-8.99,1.87-16.29,5.52-21.89,10.94-5.6,5.43-9.76,13.15-12.47,23.16-2.72,10.01-4.07,23.33-4.07,39.95,0,18.66,1.61,33.42,4.84,44.28,3.22,10.86,7.89,18.92,13.99,24.18,6.11,5.26,13.49,8.57,22.14,9.92,8.65,1.36,18.4,2.04,29.26,2.04Z"/>
  </g>
</svg>